<?xml version="1.0" standalone="no"?>
<!DOCTYPE svg PUBLIC "-//W3C//DTD SVG 20010904//EN"
 "http://www.w3.org/TR/2001/REC-SVG-20010904/DTD/svg10.dtd">
<svg version="1.0" xmlns="http://www.w3.org/2000/svg"
 width="512.000000pt" height="512.000000pt" viewBox="0 0 512.000000 512.000000"
 preserveAspectRatio="xMidYMid meet">

<g transform="translate(0.000000,512.000000) scale(0.100000,-0.100000)"
fill="#000000" stroke="none">
<path d="M1205 4026 c-63 -149 -80 -418 -37 -569 l22 -78 -51 -62 c-65 -80
-153 -259 -179 -367 -63 -256 -21 -663 93 -904 56 -118 93 -173 176 -260 182
-190 412 -288 824 -351 l38 -6 -35 -42 c-57 -70 -95 -158 -120 -279 -5 -22
-17 -30 -83 -53 -112 -39 -264 -46 -360 -17 -123 38 -215 113 -300 244 -90
139 -181 217 -301 257 -101 34 -202 23 -210 -23 -5 -23 37 -67 108 -116 107
-73 196 -188 257 -333 18 -43 46 -97 62 -121 70 -101 194 -185 326 -220 115
-31 304 -31 453 0 l33 7 -3 -272 -3 -273 -33 -29 c-18 -16 -41 -29 -52 -29
-38 0 -29 -18 12 -25 24 -3 63 -12 88 -19 79 -23 182 -44 280 -58 104 -14 514
-18 595 -5 189 29 453 80 495 94 10 4 5 8 -16 14 -16 5 -41 20 -55 35 l-24 26
-6 451 c-7 496 -9 518 -70 640 -17 34 -47 81 -66 104 -39 49 -47 44 92 64 362
51 659 208 820 434 107 150 182 367 205 599 16 156 8 354 -20 466 -26 108
-114 287 -179 367 l-51 62 22 78 c43 151 26 420 -37 569 l-15 37 -83 -5 c-138
-9 -331 -85 -531 -210 l-81 -51 -80 18 c-219 47 -324 58 -565 58 -241 0 -346
-11 -565 -58 l-80 -18 -81 51 c-202 126 -390 200 -531 209 l-83 6 -15 -37z"/>
</g>
</svg>
